<svg xmlns="http://www.w3.org/2000/svg" viewBox="0 0 250 350" width="250" height="350"><defs></defs><rect x="0.5" y="0.5" width="249" height="349" rx="14" fill="#FFFDF4" stroke="#15151A" stroke-width="1"/><circle cx="194.5" cy="15.0" r="0.44" fill="#FFF0CC"/><circle cx="198.0" cy="8.0" r="0.62" fill="#FFF0CC"/><circle cx="201.5" cy="15.0" r="0.75" fill="#FFF0CC"/><circle cx="198.0" cy="22.0" r="0.52" fill="#FFF0CC"/><circle cx="201.5" cy="29.0" r="0.55" fill="#FFF0CC"/><circle cx="205.0" cy="8.0" r="0.94" fill="#FFF0CC"/><circle cx="208.5" cy="15.0" r="1.06" fill="#FFF0CC"/><circle cx="205.0" cy="22.0" r="0.82" fill="#FFF0CC"/><circle cx="208.5" cy="29.0" r="0.82" fill="#FFF0CC"/><circle cx="205.0" cy="36.0" r="0.51" fill="#FFF0CC"/><circle cx="208.5" cy="43.0" r="0.42" fill="#FFF0CC"/><circle cx="212.0" cy="8.0" r="1.25" fill="#FFF0CC"/><circle cx="215.5" cy="15.0" r="1.37" fill="#FFF0CC"/><circle cx="212.0" cy="22.0" r="1.11" fill="#FFF0CC"/><circle cx="215.5" cy="29.0" r="1.08" fill="#FFF0CC"/><circle cx="212.0" cy="36.0" r="0.75" fill="#FFF0CC"/><circle cx="215.5" cy="43.0" r="0.63" fill="#FFF0CC"/><circle cx="219.0" cy="8.0" r="1.57" fill="#FFF0CC"/><circle cx="222.5" cy="15.0" r="1.67" fill="#FFF0CC"/><circle cx="219.0" cy="22.0" r="1.39" fill="#FFF0CC"/><circle cx="222.5" cy="29.0" r="1.31" fill="#FFF0CC"/><circle cx="219.0" cy="36.0" r="0.97" fill="#FFF0CC"/><circle cx="222.5" cy="43.0" r="0.80" fill="#FFF0CC"/><circle cx="219.0" cy="50.0" r="0.45" fill="#FFF0CC"/><circle cx="226.0" cy="8.0" r="1.88" fill="#FFF0CC"/><circle cx="229.5" cy="15.0" r="1.96" fill="#FFF0CC"/><circle cx="226.0" cy="22.0" r="1.64" fill="#FFF0CC"/><circle cx="229.5" cy="29.0" r="1.50" fill="#FFF0CC"/><circle cx="226.0" cy="36.0" r="1.15" fill="#FFF0CC"/><circle cx="229.5" cy="43.0" r="0.93" fill="#FFF0CC"/><circle cx="226.0" cy="50.0" r="0.58" fill="#FFF0CC"/><circle cx="233.0" cy="8.0" r="2.20" fill="#FFF0CC"/><circle cx="236.5" cy="15.0" r="2.20" fill="#FFF0CC"/><circle cx="233.0" cy="22.0" r="1.85" fill="#FFF0CC"/><circle cx="236.5" cy="29.0" r="1.62" fill="#FFF0CC"/><circle cx="233.0" cy="36.0" r="1.28" fill="#FFF0CC"/><circle cx="236.5" cy="43.0" r="1.01" fill="#FFF0CC"/><circle cx="233.0" cy="50.0" r="0.67" fill="#FFF0CC"/><circle cx="236.5" cy="57.0" r="0.38" fill="#FFF0CC"/><circle cx="240.0" cy="8.0" r="2.51" fill="#FFF0CC"/><circle cx="243.5" cy="15.0" r="2.28" fill="#FFF0CC"/><circle cx="240.0" cy="22.0" r="1.96" fill="#FFF0CC"/><circle cx="243.5" cy="29.0" r="1.65" fill="#FFF0CC"/><circle cx="240.0" cy="36.0" r="1.34" fill="#FFF0CC"/><circle cx="243.5" cy="43.0" r="1.02" fill="#FFF0CC"/><circle cx="240.0" cy="50.0" r="0.71" fill="#FFF0CC"/><circle cx="243.5" cy="57.0" r="0.39" fill="#FFF0CC"/><circle cx="8.0" cy="292.0" r="0.35" fill="#FFF0CC"/><circle cx="11.5" cy="299.0" r="0.66" fill="#FFF0CC"/><circle cx="8.0" cy="306.0" r="0.98" fill="#FFF0CC"/><circle cx="11.5" cy="313.0" r="1.29" fill="#FFF0CC"/><circle cx="8.0" cy="320.0" r="1.61" fill="#FFF0CC"/><circle cx="11.5" cy="327.0" r="1.91" fill="#FFF0CC"/><circle cx="8.0" cy="334.0" r="2.24" fill="#FFF0CC"/><circle cx="11.5" cy="341.0" r="2.44" fill="#FFF0CC"/><circle cx="18.5" cy="299.0" r="0.61" fill="#FFF0CC"/><circle cx="15.0" cy="306.0" r="0.95" fill="#FFF0CC"/><circle cx="18.5" cy="313.0" r="1.21" fill="#FFF0CC"/><circle cx="15.0" cy="320.0" r="1.56" fill="#FFF0CC"/><circle cx="18.5" cy="327.0" r="1.78" fill="#FFF0CC"/><circle cx="15.0" cy="334.0" r="2.12" fill="#FFF0CC"/><circle cx="18.5" cy="341.0" r="2.13" fill="#FFF0CC"/><circle cx="25.5" cy="299.0" r="0.51" fill="#FFF0CC"/><circle cx="22.0" cy="306.0" r="0.86" fill="#FFF0CC"/><circle cx="25.5" cy="313.0" r="1.08" fill="#FFF0CC"/><circle cx="22.0" cy="320.0" r="1.43" fill="#FFF0CC"/><circle cx="25.5" cy="327.0" r="1.56" fill="#FFF0CC"/><circle cx="22.0" cy="334.0" r="1.87" fill="#FFF0CC"/><circle cx="25.5" cy="341.0" r="1.81" fill="#FFF0CC"/><circle cx="32.5" cy="299.0" r="0.37" fill="#FFF0CC"/><circle cx="29.0" cy="306.0" r="0.73" fill="#FFF0CC"/><circle cx="32.5" cy="313.0" r="0.89" fill="#FFF0CC"/><circle cx="29.0" cy="320.0" r="1.23" fill="#FFF0CC"/><circle cx="32.5" cy="327.0" r="1.31" fill="#FFF0CC"/><circle cx="29.0" cy="334.0" r="1.59" fill="#FFF0CC"/><circle cx="32.5" cy="341.0" r="1.50" fill="#FFF0CC"/><circle cx="36.0" cy="306.0" r="0.55" fill="#FFF0CC"/><circle cx="39.5" cy="313.0" r="0.67" fill="#FFF0CC"/><circle cx="36.0" cy="320.0" r="1.00" fill="#FFF0CC"/><circle cx="39.5" cy="327.0" r="1.03" fill="#FFF0CC"/><circle cx="36.0" cy="334.0" r="1.29" fill="#FFF0CC"/><circle cx="39.5" cy="341.0" r="1.18" fill="#FFF0CC"/><circle cx="46.5" cy="313.0" r="0.43" fill="#FFF0CC"/><circle cx="43.0" cy="320.0" r="0.74" fill="#FFF0CC"/><circle cx="46.5" cy="327.0" r="0.74" fill="#FFF0CC"/><circle cx="43.0" cy="334.0" r="0.98" fill="#FFF0CC"/><circle cx="46.5" cy="341.0" r="0.87" fill="#FFF0CC"/><circle cx="50.0" cy="320.0" r="0.47" fill="#FFF0CC"/><circle cx="53.5" cy="327.0" r="0.44" fill="#FFF0CC"/><circle cx="50.0" cy="334.0" r="0.68" fill="#FFF0CC"/><circle cx="53.5" cy="341.0" r="0.55" fill="#FFF0CC"/><circle cx="57.0" cy="334.0" r="0.37" fill="#FFF0CC"/><rect x="5" y="5" width="240" height="340" rx="11" fill="none" stroke="#15151A" stroke-width="3"/>
<path d="M50 3 C 59 21 73 37 91 50 C 73 63 59 79 50 97 C 41 79 27 63 9 50 C 27 37 41 21 50 3 Z" fill="#E3263A" transform="translate(61.00,57.00) scale(0.4200)" stroke="#15151A" stroke-width="3.81" stroke-linejoin="round"/>
<path d="M50 3 C 59 21 73 37 91 50 C 73 63 59 79 50 97 C 41 79 27 63 9 50 C 27 37 41 21 50 3 Z" fill="#E3263A" transform="translate(147.00,57.00) scale(0.4200)" stroke="#15151A" stroke-width="3.81" stroke-linejoin="round"/>
<path d="M50 3 C 59 21 73 37 91 50 C 73 63 59 79 50 97 C 41 79 27 63 9 50 C 27 37 41 21 50 3 Z" fill="#E3263A" transform="rotate(180 82.00 272.00) translate(61.00,251.00) scale(0.4200)" stroke="#15151A" stroke-width="3.81" stroke-linejoin="round"/>
<path d="M50 3 C 59 21 73 37 91 50 C 73 63 59 79 50 97 C 41 79 27 63 9 50 C 27 37 41 21 50 3 Z" fill="#E3263A" transform="rotate(180 168.00 272.00) translate(147.00,251.00) scale(0.4200)" stroke="#15151A" stroke-width="3.81" stroke-linejoin="round"/>
<path d="M50 3 C 59 21 73 37 91 50 C 73 63 59 79 50 97 C 41 79 27 63 9 50 C 27 37 41 21 50 3 Z" fill="#E3263A" transform="translate(61.00,154.00) scale(0.4200)" stroke="#15151A" stroke-width="3.81" stroke-linejoin="round"/>
<path d="M50 3 C 59 21 73 37 91 50 C 73 63 59 79 50 97 C 41 79 27 63 9 50 C 27 37 41 21 50 3 Z" fill="#E3263A" transform="translate(147.00,154.00) scale(0.4200)" stroke="#15151A" stroke-width="3.81" stroke-linejoin="round"/>
<path d="M50 3 C 59 21 73 37 91 50 C 73 63 59 79 50 97 C 41 79 27 63 9 50 C 27 37 41 21 50 3 Z" fill="#E3263A" transform="translate(104.00,105.50) scale(0.4200)" stroke="#15151A" stroke-width="3.81" stroke-linejoin="round"/>
<g><path d="M18.309 55.514 29.055 25.976 21.063000000000002 27.164 22.737000000000002 17.660000000000004 41.691 16.04 27.975 54.65Z" fill="#E3263A"/><path d="M50 3 C 59 21 73 37 91 50 C 73 63 59 79 50 97 C 41 79 27 63 9 50 C 27 37 41 21 50 3 Z" fill="#E3263A" transform="translate(17.50,63.50) scale(0.2500)"/></g><g transform="rotate(180 125.0 175.0)"><path d="M18.309 55.514 29.055 25.976 21.063000000000002 27.164 22.737000000000002 17.660000000000004 41.691 16.04 27.975 54.65Z" fill="#E3263A"/><path d="M50 3 C 59 21 73 37 91 50 C 73 63 59 79 50 97 C 41 79 27 63 9 50 C 27 37 41 21 50 3 Z" fill="#E3263A" transform="translate(17.50,63.50) scale(0.2500)"/></g></svg>