<svg xmlns="http://www.w3.org/2000/svg" viewBox="0 0 250 350" width="250" height="350"><defs></defs><rect x="0.5" y="0.5" width="249" height="349" rx="14" fill="#FFFDF4" stroke="#15151A" stroke-width="1"/><circle cx="194.5" cy="15.0" r="0.44" fill="#DCE4FF"/><circle cx="198.0" cy="8.0" r="0.62" fill="#DCE4FF"/><circle cx="201.5" cy="15.0" r="0.75" fill="#DCE4FF"/><circle cx="198.0" cy="22.0" r="0.52" fill="#DCE4FF"/><circle cx="201.5" cy="29.0" r="0.55" fill="#DCE4FF"/><circle cx="205.0" cy="8.0" r="0.94" fill="#DCE4FF"/><circle cx="208.5" cy="15.0" r="1.06" fill="#DCE4FF"/><circle cx="205.0" cy="22.0" r="0.82" fill="#DCE4FF"/><circle cx="208.5" cy="29.0" r="0.82" fill="#DCE4FF"/><circle cx="205.0" cy="36.0" r="0.51" fill="#DCE4FF"/><circle cx="208.5" cy="43.0" r="0.42" fill="#DCE4FF"/><circle cx="212.0" cy="8.0" r="1.25" fill="#DCE4FF"/><circle cx="215.5" cy="15.0" r="1.37" fill="#DCE4FF"/><circle cx="212.0" cy="22.0" r="1.11" fill="#DCE4FF"/><circle cx="215.5" cy="29.0" r="1.08" fill="#DCE4FF"/><circle cx="212.0" cy="36.0" r="0.75" fill="#DCE4FF"/><circle cx="215.5" cy="43.0" r="0.63" fill="#DCE4FF"/><circle cx="219.0" cy="8.0" r="1.57" fill="#DCE4FF"/><circle cx="222.5" cy="15.0" r="1.67" fill="#DCE4FF"/><circle cx="219.0" cy="22.0" r="1.39" fill="#DCE4FF"/><circle cx="222.5" cy="29.0" r="1.31" fill="#DCE4FF"/><circle cx="219.0" cy="36.0" r="0.97" fill="#DCE4FF"/><circle cx="222.5" cy="43.0" r="0.80" fill="#DCE4FF"/><circle cx="219.0" cy="50.0" r="0.45" fill="#DCE4FF"/><circle cx="226.0" cy="8.0" r="1.88" fill="#DCE4FF"/><circle cx="229.5" cy="15.0" r="1.96" fill="#DCE4FF"/><circle cx="226.0" cy="22.0" r="1.64" fill="#DCE4FF"/><circle cx="229.5" cy="29.0" r="1.50" fill="#DCE4FF"/><circle cx="226.0" cy="36.0" r="1.15" fill="#DCE4FF"/><circle cx="229.5" cy="43.0" r="0.93" fill="#DCE4FF"/><circle cx="226.0" cy="50.0" r="0.58" fill="#DCE4FF"/><circle cx="233.0" cy="8.0" r="2.20" fill="#DCE4FF"/><circle cx="236.5" cy="15.0" r="2.20" fill="#DCE4FF"/><circle cx="233.0" cy="22.0" r="1.85" fill="#DCE4FF"/><circle cx="236.5" cy="29.0" r="1.62" fill="#DCE4FF"/><circle cx="233.0" cy="36.0" r="1.28" fill="#DCE4FF"/><circle cx="236.5" cy="43.0" r="1.01" fill="#DCE4FF"/><circle cx="233.0" cy="50.0" r="0.67" fill="#DCE4FF"/><circle cx="236.5" cy="57.0" r="0.38" fill="#DCE4FF"/><circle cx="240.0" cy="8.0" r="2.51" fill="#DCE4FF"/><circle cx="243.5" cy="15.0" r="2.28" fill="#DCE4FF"/><circle cx="240.0" cy="22.0" r="1.96" fill="#DCE4FF"/><circle cx="243.5" cy="29.0" r="1.65" fill="#DCE4FF"/><circle cx="240.0" cy="36.0" r="1.34" fill="#DCE4FF"/><circle cx="243.5" cy="43.0" r="1.02" fill="#DCE4FF"/><circle cx="240.0" cy="50.0" r="0.71" fill="#DCE4FF"/><circle cx="243.5" cy="57.0" r="0.39" fill="#DCE4FF"/><circle cx="8.0" cy="292.0" r="0.35" fill="#DCE4FF"/><circle cx="11.5" cy="299.0" r="0.66" fill="#DCE4FF"/><circle cx="8.0" cy="306.0" r="0.98" fill="#DCE4FF"/><circle cx="11.5" cy="313.0" r="1.29" fill="#DCE4FF"/><circle cx="8.0" cy="320.0" r="1.61" fill="#DCE4FF"/><circle cx="11.5" cy="327.0" r="1.91" fill="#DCE4FF"/><circle cx="8.0" cy="334.0" r="2.24" fill="#DCE4FF"/><circle cx="11.5" cy="341.0" r="2.44" fill="#DCE4FF"/><circle cx="18.5" cy="299.0" r="0.61" fill="#DCE4FF"/><circle cx="15.0" cy="306.0" r="0.95" fill="#DCE4FF"/><circle cx="18.5" cy="313.0" r="1.21" fill="#DCE4FF"/><circle cx="15.0" cy="320.0" r="1.56" fill="#DCE4FF"/><circle cx="18.5" cy="327.0" r="1.78" fill="#DCE4FF"/><circle cx="15.0" cy="334.0" r="2.12" fill="#DCE4FF"/><circle cx="18.5" cy="341.0" r="2.13" fill="#DCE4FF"/><circle cx="25.5" cy="299.0" r="0.51" fill="#DCE4FF"/><circle cx="22.0" cy="306.0" r="0.86" fill="#DCE4FF"/><circle cx="25.5" cy="313.0" r="1.08" fill="#DCE4FF"/><circle cx="22.0" cy="320.0" r="1.43" fill="#DCE4FF"/><circle cx="25.5" cy="327.0" r="1.56" fill="#DCE4FF"/><circle cx="22.0" cy="334.0" r="1.87" fill="#DCE4FF"/><circle cx="25.5" cy="341.0" r="1.81" fill="#DCE4FF"/><circle cx="32.5" cy="299.0" r="0.37" fill="#DCE4FF"/><circle cx="29.0" cy="306.0" r="0.73" fill="#DCE4FF"/><circle cx="32.5" cy="313.0" r="0.89" fill="#DCE4FF"/><circle cx="29.0" cy="320.0" r="1.23" fill="#DCE4FF"/><circle cx="32.5" cy="327.0" r="1.31" fill="#DCE4FF"/><circle cx="29.0" cy="334.0" r="1.59" fill="#DCE4FF"/><circle cx="32.5" cy="341.0" r="1.50" fill="#DCE4FF"/><circle cx="36.0" cy="306.0" r="0.55" fill="#DCE4FF"/><circle cx="39.5" cy="313.0" r="0.67" fill="#DCE4FF"/><circle cx="36.0" cy="320.0" r="1.00" fill="#DCE4FF"/><circle cx="39.5" cy="327.0" r="1.03" fill="#DCE4FF"/><circle cx="36.0" cy="334.0" r="1.29" fill="#DCE4FF"/><circle cx="39.5" cy="341.0" r="1.18" fill="#DCE4FF"/><circle cx="46.5" cy="313.0" r="0.43" fill="#DCE4FF"/><circle cx="43.0" cy="320.0" r="0.74" fill="#DCE4FF"/><circle cx="46.5" cy="327.0" r="0.74" fill="#DCE4FF"/><circle cx="43.0" cy="334.0" r="0.98" fill="#DCE4FF"/><circle cx="46.5" cy="341.0" r="0.87" fill="#DCE4FF"/><circle cx="50.0" cy="320.0" r="0.47" fill="#DCE4FF"/><circle cx="53.5" cy="327.0" r="0.44" fill="#DCE4FF"/><circle cx="50.0" cy="334.0" r="0.68" fill="#DCE4FF"/><circle cx="53.5" cy="341.0" r="0.55" fill="#DCE4FF"/><circle cx="57.0" cy="334.0" r="0.37" fill="#DCE4FF"/><rect x="5" y="5" width="240" height="340" rx="11" fill="none" stroke="#15151A" stroke-width="3"/>
<path d="M50 3 C 61 20 95 38 95 61 C 95 75 85 83 73 83 C 64 83 57 79 53.5 72 C 54.5 82 58.5 90 67 96 L 33 96 C 41.5 90 45.5 82 46.5 72 C 43 79 36 83 27 83 C 15 83 5 75 5 61 C 5 38 39 20 50 3 Z" fill="#15151A" transform="translate(61.00,57.00) scale(0.4200)" stroke="#15151A" stroke-width="3.81" stroke-linejoin="round"/>
<path d="M50 3 C 61 20 95 38 95 61 C 95 75 85 83 73 83 C 64 83 57 79 53.5 72 C 54.5 82 58.5 90 67 96 L 33 96 C 41.5 90 45.5 82 46.5 72 C 43 79 36 83 27 83 C 15 83 5 75 5 61 C 5 38 39 20 50 3 Z" fill="#15151A" transform="translate(147.00,57.00) scale(0.4200)" stroke="#15151A" stroke-width="3.81" stroke-linejoin="round"/>
<path d="M50 3 C 61 20 95 38 95 61 C 95 75 85 83 73 83 C 64 83 57 79 53.5 72 C 54.5 82 58.5 90 67 96 L 33 96 C 41.5 90 45.5 82 46.5 72 C 43 79 36 83 27 83 C 15 83 5 75 5 61 C 5 38 39 20 50 3 Z" fill="#15151A" transform="rotate(180 82.00 272.00) translate(61.00,251.00) scale(0.4200)" stroke="#15151A" stroke-width="3.81" stroke-linejoin="round"/>
<path d="M50 3 C 61 20 95 38 95 61 C 95 75 85 83 73 83 C 64 83 57 79 53.5 72 C 54.5 82 58.5 90 67 96 L 33 96 C 41.5 90 45.5 82 46.5 72 C 43 79 36 83 27 83 C 15 83 5 75 5 61 C 5 38 39 20 50 3 Z" fill="#15151A" transform="rotate(180 168.00 272.00) translate(147.00,251.00) scale(0.4200)" stroke="#15151A" stroke-width="3.81" stroke-linejoin="round"/>
<path d="M50 3 C 61 20 95 38 95 61 C 95 75 85 83 73 83 C 64 83 57 79 53.5 72 C 54.5 82 58.5 90 67 96 L 33 96 C 41.5 90 45.5 82 46.5 72 C 43 79 36 83 27 83 C 15 83 5 75 5 61 C 5 38 39 20 50 3 Z" fill="#15151A" transform="translate(104.00,154.00) scale(0.4200)" stroke="#15151A" stroke-width="3.81" stroke-linejoin="round"/>
<g><path d="M26.003999999999998 56.27Q21.9 56.27 19.578 53.624Q17.256 50.978 17.256 46.658Q17.256 45.632 17.337 44.498000000000005Q17.418 43.364000000000004 17.526 42.122L25.842 42.769999999999996Q25.572 43.688 25.572 44.066Q25.572 45.146 26.22 45.632000000000005Q26.868 46.118 27.732 46.118Q29.244 46.118 30.567 44.822Q31.89 43.525999999999996 31.89 40.988Q31.89 39.584 30.783 38.612Q29.676 37.64 26.165999999999997 37.64Q25.572 37.64 24.842999999999996 37.694Q24.113999999999997 37.748000000000005 22.709999999999997 37.937000000000005Q21.305999999999997 38.126000000000005 18.605999999999998 38.612Q19.2 34.562 20.064 29.296999999999997Q20.927999999999997 24.032 22.169999999999998 17.39L42.744 16.634L41.664 25.436Q40.152 25.490000000000002 38.64 25.544Q37.128 25.598 35.562 25.652Q33.995999999999995 25.706 32.403 25.759999999999998Q30.81 25.814 29.189999999999998 25.922L28.65 30.458000000000002Q32.105999999999995 30.458000000000002 34.535999999999994 31.106Q36.965999999999994 31.754 38.477999999999994 32.888000000000005Q39.989999999999995 34.022000000000006 40.665 35.56100000000001Q41.34 37.1 41.34 38.989999999999995Q41.34 41.636 40.017 44.687Q38.694 47.738 36.318 50.438Q33.888 53.192 31.188 54.731Q28.488 56.27 26.003999999999998 56.27Z" fill="#15151A"/><path d="M50 3 C 61 20 95 38 95 61 C 95 75 85 83 73 83 C 64 83 57 79 53.5 72 C 54.5 82 58.5 90 67 96 L 33 96 C 41.5 90 45.5 82 46.5 72 C 43 79 36 83 27 83 C 15 83 5 75 5 61 C 5 38 39 20 50 3 Z" fill="#15151A" transform="translate(17.50,63.50) scale(0.2500)"/></g><g transform="rotate(180 125.0 175.0)"><path d="M26.003999999999998 56.27Q21.9 56.27 19.578 53.624Q17.256 50.978 17.256 46.658Q17.256 45.632 17.337 44.498000000000005Q17.418 43.364000000000004 17.526 42.122L25.842 42.769999999999996Q25.572 43.688 25.572 44.066Q25.572 45.146 26.22 45.632000000000005Q26.868 46.118 27.732 46.118Q29.244 46.118 30.567 44.822Q31.89 43.525999999999996 31.89 40.988Q31.89 39.584 30.783 38.612Q29.676 37.64 26.165999999999997 37.64Q25.572 37.64 24.842999999999996 37.694Q24.113999999999997 37.748000000000005 22.709999999999997 37.937000000000005Q21.305999999999997 38.126000000000005 18.605999999999998 38.612Q19.2 34.562 20.064 29.296999999999997Q20.927999999999997 24.032 22.169999999999998 17.39L42.744 16.634L41.664 25.436Q40.152 25.490000000000002 38.64 25.544Q37.128 25.598 35.562 25.652Q33.995999999999995 25.706 32.403 25.759999999999998Q30.81 25.814 29.189999999999998 25.922L28.65 30.458000000000002Q32.105999999999995 30.458000000000002 34.535999999999994 31.106Q36.965999999999994 31.754 38.477999999999994 32.888000000000005Q39.989999999999995 34.022000000000006 40.665 35.56100000000001Q41.34 37.1 41.34 38.989999999999995Q41.34 41.636 40.017 44.687Q38.694 47.738 36.318 50.438Q33.888 53.192 31.188 54.731Q28.488 56.27 26.003999999999998 56.27Z" fill="#15151A"/><path d="M50 3 C 61 20 95 38 95 61 C 95 75 85 83 73 83 C 64 83 57 79 53.5 72 C 54.5 82 58.5 90 67 96 L 33 96 C 41.5 90 45.5 82 46.5 72 C 43 79 36 83 27 83 C 15 83 5 75 5 61 C 5 38 39 20 50 3 Z" fill="#15151A" transform="translate(17.50,63.50) scale(0.2500)"/></g></svg>