<svg xmlns="http://www.w3.org/2000/svg" viewBox="0 0 250 350" width="250" height="350"><defs></defs><rect x="0.5" y="0.5" width="249" height="349" rx="14" fill="#FFFDF4" stroke="#15151A" stroke-width="1"/><circle cx="194.5" cy="15.0" r="0.44" fill="#DCE4FF"/><circle cx="198.0" cy="8.0" r="0.62" fill="#DCE4FF"/><circle cx="201.5" cy="15.0" r="0.75" fill="#DCE4FF"/><circle cx="198.0" cy="22.0" r="0.52" fill="#DCE4FF"/><circle cx="201.5" cy="29.0" r="0.55" fill="#DCE4FF"/><circle cx="205.0" cy="8.0" r="0.94" fill="#DCE4FF"/><circle cx="208.5" cy="15.0" r="1.06" fill="#DCE4FF"/><circle cx="205.0" cy="22.0" r="0.82" fill="#DCE4FF"/><circle cx="208.5" cy="29.0" r="0.82" fill="#DCE4FF"/><circle cx="205.0" cy="36.0" r="0.51" fill="#DCE4FF"/><circle cx="208.5" cy="43.0" r="0.42" fill="#DCE4FF"/><circle cx="212.0" cy="8.0" r="1.25" fill="#DCE4FF"/><circle cx="215.5" cy="15.0" r="1.37" fill="#DCE4FF"/><circle cx="212.0" cy="22.0" r="1.11" fill="#DCE4FF"/><circle cx="215.5" cy="29.0" r="1.08" fill="#DCE4FF"/><circle cx="212.0" cy="36.0" r="0.75" fill="#DCE4FF"/><circle cx="215.5" cy="43.0" r="0.63" fill="#DCE4FF"/><circle cx="219.0" cy="8.0" r="1.57" fill="#DCE4FF"/><circle cx="222.5" cy="15.0" r="1.67" fill="#DCE4FF"/><circle cx="219.0" cy="22.0" r="1.39" fill="#DCE4FF"/><circle cx="222.5" cy="29.0" r="1.31" fill="#DCE4FF"/><circle cx="219.0" cy="36.0" r="0.97" fill="#DCE4FF"/><circle cx="222.5" cy="43.0" r="0.80" fill="#DCE4FF"/><circle cx="219.0" cy="50.0" r="0.45" fill="#DCE4FF"/><circle cx="226.0" cy="8.0" r="1.88" fill="#DCE4FF"/><circle cx="229.5" cy="15.0" r="1.96" fill="#DCE4FF"/><circle cx="226.0" cy="22.0" r="1.64" fill="#DCE4FF"/><circle cx="229.5" cy="29.0" r="1.50" fill="#DCE4FF"/><circle cx="226.0" cy="36.0" r="1.15" fill="#DCE4FF"/><circle cx="229.5" cy="43.0" r="0.93" fill="#DCE4FF"/><circle cx="226.0" cy="50.0" r="0.58" fill="#DCE4FF"/><circle cx="233.0" cy="8.0" r="2.20" fill="#DCE4FF"/><circle cx="236.5" cy="15.0" r="2.20" fill="#DCE4FF"/><circle cx="233.0" cy="22.0" r="1.85" fill="#DCE4FF"/><circle cx="236.5" cy="29.0" r="1.62" fill="#DCE4FF"/><circle cx="233.0" cy="36.0" r="1.28" fill="#DCE4FF"/><circle cx="236.5" cy="43.0" r="1.01" fill="#DCE4FF"/><circle cx="233.0" cy="50.0" r="0.67" fill="#DCE4FF"/><circle cx="236.5" cy="57.0" r="0.38" fill="#DCE4FF"/><circle cx="240.0" cy="8.0" r="2.51" fill="#DCE4FF"/><circle cx="243.5" cy="15.0" r="2.28" fill="#DCE4FF"/><circle cx="240.0" cy="22.0" r="1.96" fill="#DCE4FF"/><circle cx="243.5" cy="29.0" r="1.65" fill="#DCE4FF"/><circle cx="240.0" cy="36.0" r="1.34" fill="#DCE4FF"/><circle cx="243.5" cy="43.0" r="1.02" fill="#DCE4FF"/><circle cx="240.0" cy="50.0" r="0.71" fill="#DCE4FF"/><circle cx="243.5" cy="57.0" r="0.39" fill="#DCE4FF"/><circle cx="8.0" cy="292.0" r="0.35" fill="#DCE4FF"/><circle cx="11.5" cy="299.0" r="0.66" fill="#DCE4FF"/><circle cx="8.0" cy="306.0" r="0.98" fill="#DCE4FF"/><circle cx="11.5" cy="313.0" r="1.29" fill="#DCE4FF"/><circle cx="8.0" cy="320.0" r="1.61" fill="#DCE4FF"/><circle cx="11.5" cy="327.0" r="1.91" fill="#DCE4FF"/><circle cx="8.0" cy="334.0" r="2.24" fill="#DCE4FF"/><circle cx="11.5" cy="341.0" r="2.44" fill="#DCE4FF"/><circle cx="18.5" cy="299.0" r="0.61" fill="#DCE4FF"/><circle cx="15.0" cy="306.0" r="0.95" fill="#DCE4FF"/><circle cx="18.5" cy="313.0" r="1.21" fill="#DCE4FF"/><circle cx="15.0" cy="320.0" r="1.56" fill="#DCE4FF"/><circle cx="18.5" cy="327.0" r="1.78" fill="#DCE4FF"/><circle cx="15.0" cy="334.0" r="2.12" fill="#DCE4FF"/><circle cx="18.5" cy="341.0" r="2.13" fill="#DCE4FF"/><circle cx="25.5" cy="299.0" r="0.51" fill="#DCE4FF"/><circle cx="22.0" cy="306.0" r="0.86" fill="#DCE4FF"/><circle cx="25.5" cy="313.0" r="1.08" fill="#DCE4FF"/><circle cx="22.0" cy="320.0" r="1.43" fill="#DCE4FF"/><circle cx="25.5" cy="327.0" r="1.56" fill="#DCE4FF"/><circle cx="22.0" cy="334.0" r="1.87" fill="#DCE4FF"/><circle cx="25.5" cy="341.0" r="1.81" fill="#DCE4FF"/><circle cx="32.5" cy="299.0" r="0.37" fill="#DCE4FF"/><circle cx="29.0" cy="306.0" r="0.73" fill="#DCE4FF"/><circle cx="32.5" cy="313.0" r="0.89" fill="#DCE4FF"/><circle cx="29.0" cy="320.0" r="1.23" fill="#DCE4FF"/><circle cx="32.5" cy="327.0" r="1.31" fill="#DCE4FF"/><circle cx="29.0" cy="334.0" r="1.59" fill="#DCE4FF"/><circle cx="32.5" cy="341.0" r="1.50" fill="#DCE4FF"/><circle cx="36.0" cy="306.0" r="0.55" fill="#DCE4FF"/><circle cx="39.5" cy="313.0" r="0.67" fill="#DCE4FF"/><circle cx="36.0" cy="320.0" r="1.00" fill="#DCE4FF"/><circle cx="39.5" cy="327.0" r="1.03" fill="#DCE4FF"/><circle cx="36.0" cy="334.0" r="1.29" fill="#DCE4FF"/><circle cx="39.5" cy="341.0" r="1.18" fill="#DCE4FF"/><circle cx="46.5" cy="313.0" r="0.43" fill="#DCE4FF"/><circle cx="43.0" cy="320.0" r="0.74" fill="#DCE4FF"/><circle cx="46.5" cy="327.0" r="0.74" fill="#DCE4FF"/><circle cx="43.0" cy="334.0" r="0.98" fill="#DCE4FF"/><circle cx="46.5" cy="341.0" r="0.87" fill="#DCE4FF"/><circle cx="50.0" cy="320.0" r="0.47" fill="#DCE4FF"/><circle cx="53.5" cy="327.0" r="0.44" fill="#DCE4FF"/><circle cx="50.0" cy="334.0" r="0.68" fill="#DCE4FF"/><circle cx="53.5" cy="341.0" r="0.55" fill="#DCE4FF"/><circle cx="57.0" cy="334.0" r="0.37" fill="#DCE4FF"/><rect x="5" y="5" width="240" height="340" rx="11" fill="none" stroke="#15151A" stroke-width="3"/>
<path d="M50 3 C 61 20 95 38 95 61 C 95 75 85 83 73 83 C 64 83 57 79 53.5 72 C 54.5 82 58.5 90 67 96 L 33 96 C 41.5 90 45.5 82 46.5 72 C 43 79 36 83 27 83 C 15 83 5 75 5 61 C 5 38 39 20 50 3 Z" fill="#15151A" transform="translate(63.00,59.00) scale(0.3800)" stroke="#15151A" stroke-width="4.21" stroke-linejoin="round"/>
<path d="M50 3 C 61 20 95 38 95 61 C 95 75 85 83 73 83 C 64 83 57 79 53.5 72 C 54.5 82 58.5 90 67 96 L 33 96 C 41.5 90 45.5 82 46.5 72 C 43 79 36 83 27 83 C 15 83 5 75 5 61 C 5 38 39 20 50 3 Z" fill="#15151A" transform="translate(149.00,59.00) scale(0.3800)" stroke="#15151A" stroke-width="4.21" stroke-linejoin="round"/>
<path d="M50 3 C 61 20 95 38 95 61 C 95 75 85 83 73 83 C 64 83 57 79 53.5 72 C 54.5 82 58.5 90 67 96 L 33 96 C 41.5 90 45.5 82 46.5 72 C 43 79 36 83 27 83 C 15 83 5 75 5 61 C 5 38 39 20 50 3 Z" fill="#15151A" transform="translate(63.00,123.67) scale(0.3800)" stroke="#15151A" stroke-width="4.21" stroke-linejoin="round"/>
<path d="M50 3 C 61 20 95 38 95 61 C 95 75 85 83 73 83 C 64 83 57 79 53.5 72 C 54.5 82 58.5 90 67 96 L 33 96 C 41.5 90 45.5 82 46.5 72 C 43 79 36 83 27 83 C 15 83 5 75 5 61 C 5 38 39 20 50 3 Z" fill="#15151A" transform="translate(149.00,123.67) scale(0.3800)" stroke="#15151A" stroke-width="4.21" stroke-linejoin="round"/>
<path d="M50 3 C 61 20 95 38 95 61 C 95 75 85 83 73 83 C 64 83 57 79 53.5 72 C 54.5 82 58.5 90 67 96 L 33 96 C 41.5 90 45.5 82 46.5 72 C 43 79 36 83 27 83 C 15 83 5 75 5 61 C 5 38 39 20 50 3 Z" fill="#15151A" transform="rotate(180 82.00 207.33) translate(63.00,188.33) scale(0.3800)" stroke="#15151A" stroke-width="4.21" stroke-linejoin="round"/>
<path d="M50 3 C 61 20 95 38 95 61 C 95 75 85 83 73 83 C 64 83 57 79 53.5 72 C 54.5 82 58.5 90 67 96 L 33 96 C 41.5 90 45.5 82 46.5 72 C 43 79 36 83 27 83 C 15 83 5 75 5 61 C 5 38 39 20 50 3 Z" fill="#15151A" transform="rotate(180 168.00 207.33) translate(149.00,188.33) scale(0.3800)" stroke="#15151A" stroke-width="4.21" stroke-linejoin="round"/>
<path d="M50 3 C 61 20 95 38 95 61 C 95 75 85 83 73 83 C 64 83 57 79 53.5 72 C 54.5 82 58.5 90 67 96 L 33 96 C 41.5 90 45.5 82 46.5 72 C 43 79 36 83 27 83 C 15 83 5 75 5 61 C 5 38 39 20 50 3 Z" fill="#15151A" transform="rotate(180 82.00 272.00) translate(63.00,253.00) scale(0.3800)" stroke="#15151A" stroke-width="4.21" stroke-linejoin="round"/>
<path d="M50 3 C 61 20 95 38 95 61 C 95 75 85 83 73 83 C 64 83 57 79 53.5 72 C 54.5 82 58.5 90 67 96 L 33 96 C 41.5 90 45.5 82 46.5 72 C 43 79 36 83 27 83 C 15 83 5 75 5 61 C 5 38 39 20 50 3 Z" fill="#15151A" transform="rotate(180 168.00 272.00) translate(149.00,253.00) scale(0.3800)" stroke="#15151A" stroke-width="4.21" stroke-linejoin="round"/>
<path d="M50 3 C 61 20 95 38 95 61 C 95 75 85 83 73 83 C 64 83 57 79 53.5 72 C 54.5 82 58.5 90 67 96 L 33 96 C 41.5 90 45.5 82 46.5 72 C 43 79 36 83 27 83 C 15 83 5 75 5 61 C 5 38 39 20 50 3 Z" fill="#15151A" transform="translate(106.00,156.00) scale(0.3800)" stroke="#15151A" stroke-width="4.21" stroke-linejoin="round"/>
<g><path d="M21.306 55.622 22.116 46.658Q25.788 46.658 28.488 44.228Q31.188 41.798 32.214 37.586Q30.972 38.342 29.595 38.72Q28.218 39.098 26.868000000000002 39.098Q24.438000000000002 39.098 22.224000000000004 37.802Q20.01 36.506 18.606 34.103Q17.202 31.7 17.202 28.46Q17.202 24.41 19.092 21.601999999999997Q20.982 18.793999999999997 23.925 17.336Q26.868000000000002 15.878 30.0 15.878Q33.294 15.878 36.21 17.471Q39.126000000000005 19.064 40.962 22.304000000000002Q42.798 25.544 42.798 30.566Q42.798 36.074 40.962 40.664Q39.126000000000005 45.254 36.102000000000004 48.602000000000004Q33.078 51.896 29.244 53.759Q25.41 55.622 21.306 55.622ZM29.784 30.836Q31.134 30.836 32.268 30.08Q33.402 29.324 33.402 27.866Q33.402 25.382 32.511 24.545Q31.62 23.708 30.378 23.708Q29.46 23.708 28.434 24.167Q27.408 24.626 26.706000000000003 25.436Q26.004 26.246 26.004 27.434Q26.004 29.216 27.192 30.026Q28.380000000000003 30.836 29.784 30.836Z" fill="#15151A"/><path d="M50 3 C 61 20 95 38 95 61 C 95 75 85 83 73 83 C 64 83 57 79 53.5 72 C 54.5 82 58.5 90 67 96 L 33 96 C 41.5 90 45.5 82 46.5 72 C 43 79 36 83 27 83 C 15 83 5 75 5 61 C 5 38 39 20 50 3 Z" fill="#15151A" transform="translate(17.50,63.50) scale(0.2500)"/></g><g transform="rotate(180 125.0 175.0)"><path d="M21.306 55.622 22.116 46.658Q25.788 46.658 28.488 44.228Q31.188 41.798 32.214 37.586Q30.972 38.342 29.595 38.72Q28.218 39.098 26.868000000000002 39.098Q24.438000000000002 39.098 22.224000000000004 37.802Q20.01 36.506 18.606 34.103Q17.202 31.7 17.202 28.46Q17.202 24.41 19.092 21.601999999999997Q20.982 18.793999999999997 23.925 17.336Q26.868000000000002 15.878 30.0 15.878Q33.294 15.878 36.21 17.471Q39.126000000000005 19.064 40.962 22.304000000000002Q42.798 25.544 42.798 30.566Q42.798 36.074 40.962 40.664Q39.126000000000005 45.254 36.102000000000004 48.602000000000004Q33.078 51.896 29.244 53.759Q25.41 55.622 21.306 55.622ZM29.784 30.836Q31.134 30.836 32.268 30.08Q33.402 29.324 33.402 27.866Q33.402 25.382 32.511 24.545Q31.62 23.708 30.378 23.708Q29.46 23.708 28.434 24.167Q27.408 24.626 26.706000000000003 25.436Q26.004 26.246 26.004 27.434Q26.004 29.216 27.192 30.026Q28.380000000000003 30.836 29.784 30.836Z" fill="#15151A"/><path d="M50 3 C 61 20 95 38 95 61 C 95 75 85 83 73 83 C 64 83 57 79 53.5 72 C 54.5 82 58.5 90 67 96 L 33 96 C 41.5 90 45.5 82 46.5 72 C 43 79 36 83 27 83 C 15 83 5 75 5 61 C 5 38 39 20 50 3 Z" fill="#15151A" transform="translate(17.50,63.50) scale(0.2500)"/></g></svg>